<?xml version="1.0" encoding="UTF-8"?>
<svg version="1.1" xmlns="http://www.w3.org/2000/svg" width="512" height="512">
<path d="M0 0 C168.96 0 337.92 0 512 0 C512 168.96 512 337.92 512 512 C343.04 512 174.08 512 0 512 C0 343.04 0 174.08 0 0 Z " fill="#FEFEFE" transform="translate(0,0)"/>
<path d="M0 0 C13.84310416 11.62519716 23.12441401 26.51509938 28.90185547 43.53222656 C29.15265869 44.26441406 29.40346191 44.99660156 29.66186523 45.75097656 C39.56195587 76.42711946 30.64061927 112.01464678 16.79638672 140.00097656 C6.50650534 159.92930679 -5.58467037 175.10470522 -27.47314453 182.28222656 C-38.77776402 185.5026617 -52.6568412 184.20225711 -63.04345703 178.99316406 C-74.15738346 172.7892708 -79.56979208 164.50432429 -85.49658203 153.54003906 C-90.45475895 144.43641048 -95.87860235 136.2796278 -102.47314453 128.28222656 C-103.06740234 127.53457031 -103.66166016 126.78691406 -104.27392578 126.01660156 C-108.99706514 120.29021781 -114.65732823 115.85357432 -120.47314453 111.28222656 C-121.5346875 110.38697266 -121.5346875 110.38697266 -122.61767578 109.47363281 C-130.40834033 103.023618 -139.50361771 98.44163039 -148.41064453 93.72753906 C-159.66097116 87.50470215 -166.97576898 77.78036315 -170.57861328 65.52050781 C-173.85388976 51.7155968 -171.62602211 37.32915602 -164.72314453 25.03222656 C-148.97364614 0.86220428 -117.53390259 -13.01304951 -90.16064453 -19.15527344 C-58.65409156 -25.37750132 -25.29258094 -20.43547581 0 0 Z " fill="#FFB300" transform="translate(261.47314453125,238.7177734375)"/>
<path d="M0 0 C7.90004726 6.62812552 12.59351839 15.12470711 13.50390625 25.375 C14.32279153 43.9002611 8.30864338 60.80414501 -3.91357422 74.78930664 C-6.13956664 77.21303556 -8.45435182 79.51613736 -10.8125 81.8125 C-11.56402344 82.56144531 -12.31554687 83.31039062 -13.08984375 84.08203125 C-22.52682595 93.00706143 -33.57572041 97.9963909 -45.8125 101.8125 C-46.45832031 102.01746094 -47.10414063 102.22242188 -47.76953125 102.43359375 C-60.0570092 104.71253325 -72.47727113 102.79685388 -82.8125 95.8125 C-85.5625 93.375 -85.5625 93.375 -87.8125 90.8125 C-88.67875 89.86375 -89.545 88.915 -90.4375 87.9375 C-97.71578766 78.36080571 -97.78227726 66.36526893 -96.8125 54.8125 C-94.37279 42.04236078 -88.17763473 30.63324187 -79.8125 20.8125 C-79.26851563 20.13574219 -78.72453125 19.45898438 -78.1640625 18.76171875 C-60.15028028 -3.01550623 -25.41390604 -18.03296963 0 0 Z " fill="#FFB300" transform="translate(408.8125,183.1875)"/>
<path d="M0 0 C6.98397529 5.84704908 12.28638015 14.0499485 13.50537109 23.19799805 C13.66173726 25.78613634 13.70555312 28.34473991 13.6875 30.9375 C13.68395508 31.85748779 13.68041016 32.77747559 13.67675781 33.7253418 C13.47954471 41.90325475 11.6827242 48.37628389 8.1875 55.8125 C7.87683594 56.55242187 7.56617188 57.29234375 7.24609375 58.0546875 C4.49130787 64.20663085 0.27425091 69.49653104 -3.8125 74.8125 C-4.3075 75.46476562 -4.8025 76.11703125 -5.3125 76.7890625 C-15.92008347 89.98827147 -33.03911287 100.34142065 -49.8125 102.8125 C-62.85822328 103.7661642 -73.82047961 103.36382669 -84.1875 94.5625 C-88.20894781 90.66851488 -91.3193838 86.81900164 -93.8125 81.8125 C-94.410625 80.678125 -95.00875 79.54375 -95.625 78.375 C-100.2969456 64.83970616 -96.14371017 49.07706586 -90.1875 36.75 C-86.58836091 29.65873455 -82.22262416 23.66103077 -76.8125 17.8125 C-76.12671875 17.03519531 -75.4409375 16.25789063 -74.734375 15.45703125 C-56.65826949 -3.99151931 -23.64675471 -16.86252823 0 0 Z " fill="#FFB300" transform="translate(322.8125,97.1875)"/>
<path d="M0 0 C0.80373047 -0.020625 1.60746094 -0.04125 2.43554688 -0.0625 C12.33641432 -0.1262224 22.24671485 3.34578143 29.66796875 10.03515625 C37.0181854 17.91822443 39.29787219 25.15577363 39.15820312 35.87304688 C38.65735388 47.96802334 33.27469176 57.08976293 25.25 65.9375 C24.404375 66.700625 23.55875 67.46375 22.6875 68.25 C21.93339844 69.02730469 21.93339844 69.02730469 21.1640625 69.8203125 C9.37202392 81.30338937 -5.64223704 85.62623659 -21.64770508 85.55126953 C-33.6159605 85.26960487 -42.7061874 81.24084864 -51.125 72.625 C-56.80071697 65.69534556 -59.08635223 56.89842436 -58.69140625 48.03125 C-56.88387728 34.76361465 -49.64737366 22.67100817 -39.3125 14.25 C-26.96464199 5.15808328 -15.4940106 0.09798584 0 0 Z " fill="#FFB300" transform="translate(374.3125,311.75)"/>
<path d="M0 0 C6.7459131 4.17311047 11.59195387 9.22687649 15.140625 16.32421875 C15.4603125 16.94296875 15.78 17.56171875 16.109375 18.19921875 C21.03757612 29.88088067 18.96574361 45.80624784 14.390625 57.19042969 C7.86174758 72.67384385 -2.12912533 85.11073019 -18.0546875 91.6328125 C-28.13552828 95.07650397 -37.15612335 95.84914968 -47.15234375 91.7734375 C-57.17910324 86.40557636 -62.40217502 78.56557842 -65.96484375 68.06640625 C-69.94524352 51.41477753 -65.30056645 35.74321892 -56.859375 21.32421875 C-44.69925186 3.38230121 -21.51324165 -10.42733651 0 0 Z " fill="#FFB300" transform="translate(181.859375,101.67578125)"/>
</svg>
